<svg width="699" height="333" viewBox="0 0 699 333" fill="none" xmlns="http://www.w3.org/2000/svg">
<path d="M10 95L557 95" stroke="black" stroke-width="8"/>
<path d="M74.1206 93.3085V98.2998C68.4638 98.4662 64.138 99.1317 61.1432 100.296C58.3148 101.295 56.4015 103.291 55.4033 106.286C54.405 109.114 53.9059 113.606 53.9059 119.762V243.546C53.9059 249.536 54.405 254.028 55.4033 257.023C56.4015 260.017 58.3148 262.014 61.1432 263.012C64.138 264.01 68.4638 264.676 74.1206 265.009V270C70.2939 269.667 65.469 269.501 59.6459 269.501C53.9891 269.334 48.2491 269.251 42.4259 269.251C35.9373 269.251 29.8645 269.334 24.2077 269.501C18.5509 269.501 13.9756 269.667 10.4817 270V265.009C16.1385 264.676 20.3811 264.01 23.2095 263.012C26.2042 262.014 28.2008 260.017 29.199 257.023C30.1973 254.028 30.6964 249.536 30.6964 243.546V119.762C30.6964 113.606 30.1973 109.114 29.199 106.286C28.2008 103.291 26.2042 101.295 23.2095 100.296C20.3811 99.1317 16.1385 98.4662 10.4817 98.2998V93.3085C13.9756 93.4749 18.5509 93.6413 24.2077 93.8076C29.8645 93.974 35.9373 94.0572 42.4259 94.0572C48.2491 94.0572 53.9891 93.974 59.6459 93.8076C65.469 93.6413 70.2939 93.4749 74.1206 93.3085Z" fill="#0F0F0F"/>
<path d="M136.478 137.981C143.134 137.981 148.79 139.062 153.449 141.225C158.107 143.388 161.518 145.384 163.681 147.214C169.171 151.707 172.499 148.712 173.664 138.23H179.404C179.071 142.889 178.821 148.462 178.655 154.951C178.488 161.273 178.405 169.842 178.405 180.656H172.665C171.667 174.5 169.92 168.511 167.424 162.687C165.095 156.864 161.601 152.122 156.943 148.462C152.284 144.636 146.212 142.722 138.725 142.722C132.901 142.722 127.993 144.386 124 147.714C120.174 150.875 118.26 155.616 118.26 161.939C118.26 166.93 119.758 171.256 122.752 174.916C125.747 178.41 129.657 181.737 134.482 184.899C139.307 187.893 144.548 191.221 150.205 194.881C156.527 198.874 162.267 202.95 167.424 207.11C172.582 211.269 176.658 215.845 179.653 220.836C182.814 225.827 184.395 231.733 184.395 238.555C184.395 246.208 182.398 252.614 178.405 257.771C174.412 262.929 169.171 266.839 162.683 269.501C156.36 272.163 149.373 273.494 141.719 273.494C138.059 273.494 134.565 273.161 131.238 272.496C128.076 271.997 124.999 271.165 122.004 270C120.34 269.168 118.593 268.17 116.763 267.005C115.099 265.841 113.435 264.593 111.772 263.262C110.108 261.931 108.61 262.014 107.279 263.511C105.948 264.842 104.95 267.588 104.285 271.747H98.5447C98.8775 266.423 99.127 259.934 99.2934 252.281C99.4598 244.628 99.543 234.479 99.543 221.834H105.283C106.448 231.151 108.111 239.304 110.274 246.291C112.437 253.279 115.848 258.77 120.506 262.763C125.165 266.589 131.654 268.503 139.972 268.503C143.3 268.503 146.627 267.754 149.955 266.257C153.449 264.759 156.36 262.264 158.69 258.77C161.019 255.276 162.184 250.617 162.184 244.794C162.184 237.473 159.522 231.484 154.198 226.825C148.874 222.167 142.135 217.259 133.983 212.101C127.993 208.274 122.337 204.448 117.012 200.621C111.855 196.794 107.612 192.469 104.285 187.644C101.124 182.819 99.543 176.996 99.543 170.174C99.543 162.687 101.207 156.615 104.534 151.956C108.028 147.131 112.604 143.637 118.26 141.474C123.917 139.145 129.99 137.981 136.478 137.981ZM285.784 137.981C291.607 137.981 296.682 138.812 301.008 140.476C305.333 142.14 308.91 144.469 311.739 147.464C314.9 150.791 317.063 155.117 318.228 160.441C319.392 165.765 319.975 172.337 319.975 180.157V246.791C319.975 253.778 321.389 258.52 324.217 261.016C327.212 263.511 332.12 264.759 338.941 264.759V270C336.113 269.834 331.787 269.667 325.964 269.501C320.141 269.168 314.484 269.002 308.994 269.002C303.503 269.002 298.096 269.168 292.772 269.501C287.614 269.667 283.705 269.834 281.042 270V264.759C287.032 264.759 291.275 263.511 293.77 261.016C296.266 258.52 297.514 253.778 297.514 246.791V174.666C297.514 169.509 297.181 164.767 296.515 160.441C295.85 156.116 294.186 152.622 291.524 149.96C288.862 147.298 284.536 145.967 278.547 145.967C272.058 145.967 266.235 147.963 261.077 151.956C256.086 155.949 252.093 161.44 249.098 168.427C246.27 175.249 244.856 182.902 244.856 191.387V246.791C244.856 253.778 246.103 258.52 248.599 261.016C251.095 263.511 255.337 264.759 261.327 264.759V270C258.665 269.834 254.672 269.667 249.348 269.501C244.19 269.168 238.866 269.002 233.376 269.002C227.885 269.002 222.229 269.168 216.405 269.501C210.582 269.667 206.256 269.834 203.428 270V264.759C210.249 264.759 215.074 263.511 217.903 261.016C220.898 258.52 222.395 253.778 222.395 246.791V168.677C222.395 161.19 221.064 155.7 218.402 152.206C215.74 148.545 210.749 146.715 203.428 146.715V141.474C208.752 141.974 213.91 142.223 218.901 142.223C223.726 142.223 228.301 141.974 232.627 141.474C237.119 140.809 241.195 139.894 244.856 138.729V168.178C249.181 157.363 255.088 149.627 262.575 144.968C270.062 140.31 277.798 137.981 285.784 137.981ZM360.903 137.981C366.726 137.981 371.801 138.812 376.126 140.476C380.452 142.14 384.029 144.469 386.858 147.464C390.019 150.791 392.182 155.117 393.346 160.441C394.511 165.765 395.093 172.337 395.093 180.157V246.791C395.093 253.778 396.508 258.52 399.336 261.016C402.331 263.511 407.239 264.759 414.06 264.759V270C411.232 269.834 406.906 269.667 401.083 269.501C395.26 269.168 389.603 269.002 384.113 269.002C378.622 269.002 373.215 269.168 367.891 269.501C362.733 269.667 358.823 269.834 356.161 270V264.759C362.151 264.759 366.393 263.511 368.889 261.016C371.385 258.52 372.633 253.778 372.633 246.791V174.666C372.633 169.509 372.3 164.767 371.634 160.441C370.969 156.116 369.305 152.622 366.643 149.96C363.981 147.298 359.655 145.967 353.666 145.967C347.177 145.967 341.354 147.963 336.196 151.956C331.205 155.949 327.212 161.356 324.217 168.178C321.389 174.999 319.975 182.653 319.975 191.138L319.226 167.928C323.718 156.448 329.791 148.629 337.444 144.469C345.097 140.143 352.917 137.981 360.903 137.981ZM486.108 137.981C496.756 137.981 506.323 140.31 514.808 144.968C523.293 149.627 530.032 156.947 535.023 166.93C540.18 176.913 542.759 189.89 542.759 205.862C542.759 221.834 540.18 234.811 535.023 244.794C530.032 254.61 523.293 261.848 514.808 266.506C506.323 271.165 496.756 273.494 486.108 273.494C475.627 273.494 466.06 271.165 457.408 266.506C448.923 261.848 442.102 254.61 436.944 244.794C431.953 234.811 429.457 221.834 429.457 205.862C429.457 189.89 431.953 176.913 436.944 166.93C442.102 156.947 448.923 149.627 457.408 144.968C466.06 140.31 475.627 137.981 486.108 137.981ZM486.108 142.972C476.625 142.972 468.805 147.88 462.649 157.696C456.66 167.512 453.665 183.568 453.665 205.862C453.665 228.156 456.66 244.212 462.649 254.028C468.805 263.678 476.625 268.503 486.108 268.503C495.592 268.503 503.328 263.678 509.318 254.028C515.474 244.212 518.552 228.156 518.552 205.862C518.552 183.568 515.474 167.512 509.318 157.696C503.328 147.88 495.592 142.972 486.108 142.972ZM590.139 79.0833C594.465 79.0833 598.209 80.6639 601.37 83.8251C604.531 86.9862 606.112 90.7297 606.112 95.0555C606.112 99.3812 604.531 103.125 601.37 106.286C598.209 109.447 594.465 111.028 590.139 111.028C585.814 111.028 582.07 109.447 578.909 106.286C575.748 103.125 574.167 99.3812 574.167 95.0555C574.167 90.7297 575.748 86.9862 578.909 83.8251C582.07 80.6639 585.814 79.0833 590.139 79.0833ZM603.117 138.729V246.791C603.117 253.778 604.531 258.52 607.359 261.016C610.354 263.511 615.262 264.759 622.084 264.759V270C619.255 269.834 614.93 269.667 609.106 269.501C603.45 269.168 597.71 269.002 591.886 269.002C586.23 269.002 580.49 269.168 574.666 269.501C568.843 269.667 564.518 269.834 561.689 270V264.759C568.511 264.759 573.335 263.511 576.164 261.016C579.159 258.52 580.656 253.778 580.656 246.791V168.677C580.656 161.19 579.325 155.7 576.663 152.206C574.001 148.545 569.01 146.715 561.689 146.715V141.474C567.013 141.974 572.171 142.223 577.162 142.223C581.987 142.223 586.562 141.974 590.888 141.474C595.38 140.809 599.457 139.894 603.117 138.729ZM674.484 74.3416V246.791C674.484 253.778 675.899 258.52 678.727 261.016C681.722 263.511 686.63 264.759 693.451 264.759V270C690.623 269.834 686.297 269.667 680.474 269.501C674.817 269.168 669.077 269.002 663.254 269.002C657.597 269.002 651.857 269.168 646.034 269.501C640.211 269.667 635.885 269.834 633.057 270V264.759C639.878 264.759 644.703 263.511 647.531 261.016C650.526 258.52 652.024 253.778 652.024 246.791V104.289C652.024 96.8024 650.693 91.312 648.031 87.8181C645.369 84.1578 640.377 82.3277 633.057 82.3277V77.0868C638.381 77.586 643.538 77.8355 648.53 77.8355C653.355 77.8355 657.93 77.586 662.256 77.0868C666.748 76.4213 670.824 75.5063 674.484 74.3416Z" fill="#252525"/>
</svg>
